<?xml version="1.0" encoding="UTF-8"?>
<svg id="Layer_2" data-name="Layer 2" xmlns="http://www.w3.org/2000/svg" xmlns:xlink="http://www.w3.org/1999/xlink" viewBox="0 0 387.87 97.45">
  <defs>
    <style>
      .cls-1 {
        fill: #06abb9;
      }

      .cls-1, .cls-2 {
        stroke-width: 0px;
      }

      .cls-2 {
        fill: url(#linear-gradient);
      }
    </style>
    <linearGradient id="linear-gradient" x1="134.48" y1="49.58" x2="-47.57" y2="49.58" gradientUnits="userSpaceOnUse">
      <stop offset="0" stop-color="#06abb9"/>
      <stop offset="1" stop-color="#0d5f93"/>
    </linearGradient>
  </defs>
  <g id="Layer_1-2" data-name="Layer 1">
    <g>
      <g>
        <polygon class="cls-1" points="195.31 36.52 216.25 36.52 216.25 30.5 202.62 30.5 202.62 21.3 216.25 21.3 216.25 15.34 202.62 15.34 202.61 7.35 216.25 7.35 216.25 1.01 195.31 1.01 195.31 36.52"/>
        <polygon class="cls-1" points="246.35 1.01 220.34 1.01 220.34 7.35 230.16 7.35 230.16 36.52 237.47 36.52 237.47 7.35 246.35 7.35 246.35 1.01"/>
        <polygon class="cls-1" points="156.82 36.51 164.12 36.51 164.12 15.34 188.87 36.6 188.87 1 181.58 1 181.58 22.24 156.82 .95 156.82 36.51"/>
        <path class="cls-1" d="M259.68,0l-17.45,36.52h7.61l2.54-5.07h13.95l2.54,5.07h8.24L259.68,0ZM259.68,13.7l5.65,11.73h-11.32l5.67-11.73Z"/>
        <path class="cls-1" d="M286.48,9.99c0-2.83,2.53-3.8,5.06-3.8,2.84,0,5.05.63,7.26,2.53l3.16-5.05c-3.16-2.22-6.32-3.46-10.74-3.46-6.01,0-12.32,3.46-12.63,10.41,0,12.63,17.06,8.54,16.74,15.79,0,3.17-2.53,4.43-5.68,4.43-2.84,0-6-.96-7.91-2.84l-3.47,5.36c2.55,1.96,4.6,3.07,6.92,3.63v-3.82l5,4.3c7.16-.08,13.04-3.87,13.04-11.69,0-12.32-17.06-8.52-16.75-15.79"/>
      </g>
      <path class="cls-2" d="M68.7,96V24.62c4.65-8.47,11.45-14.73,20.63-18.55v34.68c-1.22.46-2.09,1.64-2.09,3.02,0,1.78,1.44,3.23,3.22,3.23s3.23-1.45,3.23-3.23c0-1.38-.87-2.56-2.09-3.02V5.19c7.06-2.52,15.42-3.7,25.17-3.45v19.52l-5.16,4.87-2.27,2.14v12.43c-1.22.46-2.09,1.64-2.09,3.02,0,1.78,1.44,3.23,3.22,3.23s3.22-1.44,3.22-3.23c0-1.38-.87-2.56-2.09-3.02v-11.28l5.16-4.87,2.27-2.14V1.83c1.48.07,3,.17,4.54.31v71.38c-4.25-.37-8.27-.5-12.05-.39v-16.22c1.22-.46,2.09-1.64,2.09-3.02,0-1.78-1.44-3.22-3.23-3.22s-3.22,1.44-3.22,3.22c0,1.38.87,2.56,2.09,3.02v16.32c-2.58.14-5.05.41-7.41.78v-9.83c1.22-.46,2.09-1.64,2.09-3.02,0-1.78-1.44-3.23-3.22-3.23s-3.23,1.45-3.23,3.23c0,1.38.87,2.56,2.09,3.02v10.23c-1.83.36-3.6.79-5.29,1.29v-19.1l5.26-4.86,2.27-2.1v-21.58c1.22-.46,2.09-1.64,2.09-3.02,0-1.78-1.44-3.23-3.23-3.23s-3.22,1.45-3.22,3.23c0,1.38.87,2.56,2.09,3.02v20.68l-5.26,4.86-2.27,2.1v20.74c-.77.27-1.53.55-2.27.85v-21.36l-2.27-2.09-5.26-4.86v-20.68c1.22-.46,2.09-1.64,2.09-3.02,0-1.78-1.44-3.22-3.22-3.22s-3.23,1.44-3.23,3.22c0,1.38.87,2.56,2.09,3.02v21.58l2.27,2.1,5.26,4.86v21.44c-2.86,1.34-5.47,2.93-7.84,4.77v-16.44c1.22-.46,2.09-1.64,2.09-3.02,0-1.78-1.44-3.22-3.22-3.22s-3.22,1.44-3.22,3.22c0,1.38.87,2.56,2.09,3.02v18.34c-3.45,3.11-6.33,6.81-8.67,11.07ZM127.28,15.34v62.71c-26.91-1.71-45.64,2.37-54.87,19.19,12.83-7.95,29.87-13.1,54.87-13.01,2.66.01,5.41.08,8.25.21V15.34h-8.25ZM46.21,6.28v34.68c1.22.46,2.09,1.64,2.09,3.02,0,1.78-1.44,3.22-3.22,3.22s-3.22-1.44-3.22-3.22c0-1.38.87-2.56,2.09-3.02V5.4c-7.06-2.52-15.42-3.7-25.17-3.45v19.52l5.16,4.87,2.27,2.14v12.43c1.22.46,2.09,1.64,2.09,3.02,0,1.78-1.44,3.23-3.22,3.23s-3.22-1.45-3.22-3.23c0-1.38.87-2.56,2.09-3.02v-11.28l-5.16-4.87-2.27-2.14V2.03c-1.48.07-3,.17-4.54.31v71.38c4.25-.37,8.27-.5,12.05-.39v-16.22c-1.22-.46-2.09-1.64-2.09-3.02,0-1.78,1.44-3.22,3.22-3.22s3.22,1.44,3.22,3.22c0,1.38-.87,2.56-2.09,3.02v16.32c2.58.14,5.05.41,7.42.78v-9.83c-1.22-.46-2.09-1.64-2.09-3.02,0-1.78,1.44-3.23,3.22-3.23s3.22,1.44,3.22,3.23c0,1.38-.87,2.56-2.09,3.02v10.23c1.83.36,3.6.79,5.29,1.29v-19.1l-5.26-4.86-2.27-2.09v-21.58c-1.22-.46-2.09-1.64-2.09-3.02,0-1.78,1.44-3.22,3.22-3.22s3.22,1.44,3.22,3.22c0,1.38-.87,2.56-2.09,3.02v20.67l5.26,4.86,2.27,2.1v20.74c.77.27,1.53.55,2.26.85v-21.36l2.27-2.1,5.26-4.86v-20.68c-1.22-.46-2.09-1.64-2.09-3.02,0-1.78,1.44-3.22,3.22-3.22s3.22,1.45,3.22,3.22c0,1.38-.87,2.56-2.09,3.02v21.58l-2.27,2.1-5.26,4.86v21.44c2.86,1.34,5.47,2.93,7.84,4.77v-16.44c-1.22-.46-2.09-1.64-2.09-3.02,0-1.78,1.44-3.22,3.22-3.22s3.23,1.44,3.23,3.22c0,1.38-.87,2.56-2.09,3.02v18.34c3.45,3.11,6.33,6.81,8.67,11.07V24.83c-4.65-8.47-11.45-14.73-20.63-18.55ZM8.25,78.26V15.54H0v69.11c2.84-.13,5.59-.2,8.25-.21,25-.1,42.05,5.06,54.87,13.01-9.23-16.82-27.97-20.9-54.87-19.19Z"/>
      <g>
        <path class="cls-1" d="M156.25,84.99h6.95l3.88-8.55h14.48l3.72,8.55h6.94l-17.54-39.19-18.43,39.19ZM174.44,60.07l4.5,10.28h-9.18l4.68-10.28Z"/>
        <path class="cls-1" d="M210.3,47.93c-5.52,0-9.7,1.51-13.14,4.76-2.66,2.52-5.84,7.03-5.84,14.22,0,5.57,1.91,10.07,5.84,13.74,2.42,2.29,6.61,5.02,12.88,5.02,2.02,0,6-.35,9.97-2.73l.24-.15v-7.87l-.84.8c-1.9,1.8-5.05,3.95-9.21,3.95-7.1,0-12.46-5.49-12.46-12.78,0-7.65,5.1-12.99,12.4-12.99,3.42,0,6.45,1.24,9.28,3.8l.84.76v-7.77l-.23-.15c-2.81-1.79-5.9-2.63-9.72-2.63Z"/>
        <path class="cls-1" d="M221.95,84.99h6.95l3.88-8.55h14.48l3.72,8.55h6.94l-17.54-39.19-18.43,39.19ZM240.14,60.07l4.5,10.28h-9.18l4.68-10.28Z"/>
        <path class="cls-1" d="M282.13,52.12c-3.96-2.95-8.25-3.55-13.47-3.55h-7.93v36.42h7.83c5.25,0,9.11-.57,13.24-3.49,4.73-3.33,7.33-8.55,7.33-14.69s-2.55-11.33-7-14.69ZM278.08,76.49c-2.85,2.11-6.2,2.4-9.1,2.4h-1.84v-24.22h1.84c2.75,0,6.29.27,9.16,2.35,2.21,1.61,4.57,5.03,4.57,9.79,0,5.56-3.24,8.63-4.63,9.69Z"/>
        <polygon class="cls-1" points="294.39 84.99 314.93 84.99 314.93 78.89 300.81 78.89 300.81 68.74 314.51 68.74 314.51 62.64 300.81 62.64 300.81 54.67 314.93 54.67 314.93 48.57 294.39 48.57 294.39 84.99"/>
        <polygon class="cls-1" points="338.93 72.7 326.42 44.77 318.57 84.99 325.12 84.99 328.63 64.8 338.61 87.36 348.7 64.85 352.1 84.99 358.64 84.99 351.57 44.73 338.93 72.7"/>
        <polygon class="cls-1" points="380.56 48.57 372.67 62.25 364.78 48.57 357.46 48.57 369.46 69.33 369.46 84.99 375.88 84.99 375.88 69.33 387.87 48.57 380.56 48.57"/>
      </g>
    </g>
  </g>
</svg>